<svg viewBox="0 0 760 386" width="100%" xmlns="http://www.w3.org/2000/svg" font-family="Noto Sans CJK TC, Noto Sans TC, sans-serif"><rect width="760" height="386" fill="#fcfcfb"/><text x="20" y="24" font-size="13.5" fill="#0b0b0b" text-anchor="start" font-weight="700">圖 E｜主權 AI 四項能力在現有鑑定管道的覆蓋情形</text><text x="20" y="40" font-size="10" fill="#8d8c88" text-anchor="start" font-weight="400">依各管道公開之鑑定範圍與能力構面判定；判定標準見附錄 A</text><text x="177.0" y="90" font-size="10" fill="#52514e" text-anchor="middle" font-weight="600">iPAS</text><text x="177.0" y="103" font-size="10" fill="#52514e" text-anchor="middle" font-weight="400">AI 應用規劃師</text><text x="295.0" y="90" font-size="10" fill="#52514e" text-anchor="middle" font-weight="600">AI 產業人才</text><text x="295.0" y="103" font-size="10" fill="#52514e" text-anchor="middle" font-weight="400">認定指引 3.0</text><text x="413.0" y="90" font-size="10" fill="#52514e" text-anchor="middle" font-weight="600">AI 公務人才</text><text x="413.0" y="103" font-size="10" fill="#52514e" text-anchor="middle" font-weight="400">認定指引</text><text x="531.0" y="90" font-size="10" fill="#52514e" text-anchor="middle" font-weight="600">學位教育</text><text x="531.0" y="103" font-size="10" fill="#52514e" text-anchor="middle" font-weight="400">（碩博士）</text><text x="649.0" y="90" font-size="10" fill="#52514e" text-anchor="middle" font-weight="600">國際廠商認證</text><text x="649.0" y="103" font-size="10" fill="#52514e" text-anchor="middle" font-weight="400">（雲端／框架）</text><text x="106" y="147.0" font-size="12" fill="#0b0b0b" text-anchor="end" font-weight="700">營運</text><rect x="119" y="121" width="116" height="42" rx="3" fill="#f2f4f7"/><text x="177.0" y="146.0" font-size="9.5" fill="#52514e" text-anchor="middle" font-weight="600">未涵蓋</text><rect x="237" y="121" width="116" height="42" rx="3" fill="#f2f4f7"/><text x="295.0" y="146.0" font-size="9.5" fill="#52514e" text-anchor="middle" font-weight="600">未涵蓋</text><rect x="355" y="121" width="116" height="42" rx="3" fill="#f2f4f7"/><text x="413.0" y="146.0" font-size="9.5" fill="#52514e" text-anchor="middle" font-weight="600">未涵蓋</text><rect x="473" y="121" width="116" height="42" rx="3" fill="#f2f4f7"/><text x="531.0" y="146.0" font-size="9.5" fill="#52514e" text-anchor="middle" font-weight="600">未涵蓋</text><rect x="591" y="121" width="116" height="42" rx="3" fill="#7aabe2"/><text x="649.0" y="146.0" font-size="9.5" fill="#52514e" text-anchor="middle" font-weight="600">部分覆蓋</text><text x="106" y="191.0" font-size="12" fill="#0b0b0b" text-anchor="end" font-weight="700">調校</text><rect x="119" y="165" width="116" height="42" rx="3" fill="#bcd4f0"/><text x="177.0" y="190.0" font-size="9.5" fill="#52514e" text-anchor="middle" font-weight="600">前提／間接</text><rect x="237" y="165" width="116" height="42" rx="3" fill="#7aabe2"/><text x="295.0" y="190.0" font-size="9.5" fill="#52514e" text-anchor="middle" font-weight="600">部分覆蓋</text><rect x="355" y="165" width="116" height="42" rx="3" fill="#7aabe2"/><text x="413.0" y="190.0" font-size="9.5" fill="#52514e" text-anchor="middle" font-weight="600">部分覆蓋</text><rect x="473" y="165" width="116" height="42" rx="3" fill="#7aabe2"/><text x="531.0" y="190.0" font-size="9.5" fill="#52514e" text-anchor="middle" font-weight="600">部分覆蓋</text><rect x="591" y="165" width="116" height="42" rx="3" fill="#bcd4f0"/><text x="649.0" y="190.0" font-size="9.5" fill="#52514e" text-anchor="middle" font-weight="600">前提／間接</text><text x="106" y="235.0" font-size="12" fill="#0b0b0b" text-anchor="end" font-weight="700">稽核</text><rect x="119" y="209" width="116" height="42" rx="3" fill="#f2f4f7"/><text x="177.0" y="234.0" font-size="9.5" fill="#52514e" text-anchor="middle" font-weight="600">未涵蓋</text><rect x="237" y="209" width="116" height="42" rx="3" fill="#bcd4f0"/><text x="295.0" y="234.0" font-size="9.5" fill="#52514e" text-anchor="middle" font-weight="600">前提／間接</text><rect x="355" y="209" width="116" height="42" rx="3" fill="#f2f4f7"/><text x="413.0" y="234.0" font-size="9.5" fill="#52514e" text-anchor="middle" font-weight="600">未涵蓋</text><rect x="473" y="209" width="116" height="42" rx="3" fill="#bcd4f0"/><text x="531.0" y="234.0" font-size="9.5" fill="#52514e" text-anchor="middle" font-weight="600">前提／間接</text><rect x="591" y="209" width="116" height="42" rx="3" fill="#f2f4f7"/><text x="649.0" y="234.0" font-size="9.5" fill="#52514e" text-anchor="middle" font-weight="600">未涵蓋</text><text x="106" y="279.0" font-size="12" fill="#0b0b0b" text-anchor="end" font-weight="700">問責</text><rect x="119" y="253" width="116" height="42" rx="3" fill="#f2f4f7"/><text x="177.0" y="278.0" font-size="9.5" fill="#52514e" text-anchor="middle" font-weight="600">未涵蓋</text><rect x="237" y="253" width="116" height="42" rx="3" fill="#f2f4f7"/><text x="295.0" y="278.0" font-size="9.5" fill="#52514e" text-anchor="middle" font-weight="600">未涵蓋</text><rect x="355" y="253" width="116" height="42" rx="3" fill="#f2f4f7"/><text x="413.0" y="278.0" font-size="9.5" fill="#52514e" text-anchor="middle" font-weight="600">未涵蓋</text><rect x="473" y="253" width="116" height="42" rx="3" fill="#f2f4f7"/><text x="531.0" y="278.0" font-size="9.5" fill="#52514e" text-anchor="middle" font-weight="600">未涵蓋</text><rect x="591" y="253" width="116" height="42" rx="3" fill="#f2f4f7"/><text x="649.0" y="278.0" font-size="9.5" fill="#52514e" text-anchor="middle" font-weight="600">未涵蓋</text><text x="118" y="330" font-size="10" fill="#8d8c88" text-anchor="start" font-weight="400">覆蓋程度：</text><rect x="184" y="321" width="14" height="11" rx="2" fill="#f2f4f7"/><text x="203" y="330" font-size="10" fill="#52514e" text-anchor="start" font-weight="400">未涵蓋</text><rect x="300" y="321" width="14" height="11" rx="2" fill="#bcd4f0"/><text x="319" y="330" font-size="10" fill="#52514e" text-anchor="start" font-weight="400">前提／間接</text><rect x="416" y="321" width="14" height="11" rx="2" fill="#7aabe2"/><text x="435" y="330" font-size="10" fill="#52514e" text-anchor="start" font-weight="400">部分覆蓋</text><rect x="532" y="321" width="14" height="11" rx="2" fill="#2a78d6"/><text x="551" y="330" font-size="10" fill="#52514e" text-anchor="start" font-weight="400">覆蓋</text><text x="20" y="368" font-size="10" fill="#8d8c88" text-anchor="start" font-weight="400">註：「營運」與「問責」兩構面為主權 AI 情境所新增之需求，既有管道多未涵蓋——此為新課題，非既有設計之缺失。</text></svg>