<svg viewBox="0 0 800 372" width="100%" xmlns="http://www.w3.org/2000/svg" font-family="Noto Sans CJK TC"><defs>
<marker id="ag" markerWidth="9" markerHeight="9" refX="8" refY="3" orient="auto"><path d="M0,0 L8,3 L0,6 z" fill="#3C4E66"/></marker>
<marker id="ar" markerWidth="9" markerHeight="9" refX="8" refY="3" orient="auto"><path d="M0,0 L8,3 L0,6 z" fill="#C1552F"/></marker>
<marker id="ab" markerWidth="9" markerHeight="9" refX="8" refY="3" orient="auto"><path d="M0,0 L8,3 L0,6 z" fill="#1F6F8B"/></marker></defs><rect x="50.0" y="34.0" width="150" height="42" rx="4" fill="#FFFFFF" stroke="#10233A" stroke-width="2.2"/><text x="125" y="51.5" text-anchor="middle" font-size="11.5" fill="#10233A">職能定義</text><text x="125" y="66.5" text-anchor="middle" font-size="11.5" fill="#10233A">明確度</text><rect x="295.0" y="34.0" width="150" height="42" rx="4" fill="#FFFFFF" stroke="#D8DFE7" stroke-width="1.0"/><text x="370" y="51.5" text-anchor="middle" font-size="11.5" fill="#10233A">需求推估</text><text x="370" y="66.5" text-anchor="middle" font-size="11.5" fill="#10233A">準確度</text><rect x="540.0" y="34.0" width="150" height="42" rx="4" fill="#FFFFFF" stroke="#D8DFE7" stroke-width="1.0"/><text x="615" y="51.5" text-anchor="middle" font-size="11.5" fill="#10233A">政策資源</text><text x="615" y="66.5" text-anchor="middle" font-size="11.5" fill="#10233A">配置效率</text><rect x="540.0" y="174.0" width="150" height="42" rx="4" fill="#FFFFFF" stroke="#D8DFE7" stroke-width="1.0"/><text x="615" y="191.5" text-anchor="middle" font-size="11.5" fill="#10233A">養成產出與</text><text x="615" y="206.5" text-anchor="middle" font-size="11.5" fill="#10233A">需求錯配</text><rect x="290.0" y="174.0" width="160" height="42" rx="4" fill="#FFFFFF" stroke="#D8DFE7" stroke-width="1.0"/><text x="370" y="191.5" text-anchor="middle" font-size="11.5" fill="#10233A">企業感受到的</text><text x="370" y="206.5" text-anchor="middle" font-size="11.5" fill="#10233A">人才短缺</text><rect x="45.0" y="174.0" width="160" height="42" rx="4" fill="#FFFFFF" stroke="#D8DFE7" stroke-width="1.0"/><text x="125" y="191.5" text-anchor="middle" font-size="11.5" fill="#10233A">以「增加人數」</text><text x="125" y="206.5" text-anchor="middle" font-size="11.5" fill="#10233A">回應短缺</text><path d="M200,55 L288,55" fill="none" stroke="#C1552F" stroke-width="1.5" marker-end="url(#ar)"/><text x="244" y="46" font-size="16" font-weight="700" fill="#C1552F" text-anchor="middle">+</text><path d="M445,55 L533,55" fill="none" stroke="#C1552F" stroke-width="1.5" marker-end="url(#ar)"/><text x="489" y="46" font-size="16" font-weight="700" fill="#C1552F" text-anchor="middle">+</text><path d="M615,76 L615,170" fill="none" stroke="#C1552F" stroke-width="1.5" marker-end="url(#ar)"/><text x="633" y="128" font-size="16" font-weight="700" fill="#C1552F" text-anchor="middle">−</text><path d="M540,195 L455,195" fill="none" stroke="#C1552F" stroke-width="1.5" marker-end="url(#ar)"/><text x="497" y="186" font-size="16" font-weight="700" fill="#C1552F" text-anchor="middle">+</text><path d="M290,195 L210,195" fill="none" stroke="#C1552F" stroke-width="1.5" marker-end="url(#ar)"/><text x="250" y="186" font-size="16" font-weight="700" fill="#C1552F" text-anchor="middle">+</text><path d="M125,174 L125,80" fill="none" stroke="#C1552F" stroke-width="1.5" marker-end="url(#ar)"/><text x="107" y="128" font-size="16" font-weight="700" fill="#C1552F" text-anchor="middle">−</text><circle cx="370" cy="125" r="17" fill="#C1552F"/><text x="370" y="130.5" text-anchor="middle" font-size="13.5" font-weight="700" fill="#fff">R3</text><text x="370" y="158" text-anchor="middle" font-size="10.5" font-weight="700" fill="#C1552F">定義失焦環</text><rect x="330" y="292" width="230" height="34" rx="4" fill="#FFFFFF" stroke="#E4E9EF"/><text x="445" y="313" text-anchor="middle" font-size="11.5" fill="#10233A">擴大既有認證規模</text><path d="M205,212 C270,262 300,296 322,306" fill="none" stroke="#C1552F" stroke-width="1.5" marker-end="url(#ar)"/><text x="243" y="272" font-size="16" font-weight="700" fill="#C1552F" text-anchor="middle">+</text><path d="M560,306 C610,296 630,270 632,225" fill="none" stroke="#C1552F" stroke-width="1.5" stroke-dasharray="6,4" marker-end="url(#ar)"/><text x="644" y="272" font-size="11" fill="#C1552F">增加的是知識基礎人數</text><text x="644" y="286" font-size="11" fill="#C1552F">非實作與問責能力存量</text><text x="370" y="352" text-anchor="middle" font-size="10.5" fill="#3C4E66">兩個負連結（偶數）→ 增強迴路：短缺以人數回應，定義問題持續被掩蓋</text></svg>